<svg width="1920" height="288" viewBox="0 0 1920 288" fill="none" xmlns="http://www.w3.org/2000/svg"><rect x="0" y="0" width="40" height="40" fill="#1E1E1E" opacity="0.50"></rect><rect x="48" y="0" width="40" height="40" fill="#1E1E1E" opacity="0.40"></rect><rect x="96" y="0" width="40" height="40" fill="#1E1E1E" opacity="0.40"></rect><rect x="144" y="0" width="40" height="40" fill="#1E1E1E" opacity="0.30"></rect><rect x="192" y="0" width="40" height="40" fill="#1E1E1E" opacity="0.40"></rect><rect x="240" y="0" width="40" height="40" fill="#1E1E1E" opacity="0.30"></rect><rect x="288" y="0" width="40" height="40" fill="#1E1E1E" opacity="0.20"></rect><rect x="480" y="0" width="40" height="40" fill="#1E1E1E" opacity="0.20"></rect><rect x="528" y="0" width="40" height="40" fill="#1E1E1E" opacity="0.10"></rect><rect x="576" y="0" width="40" height="40" fill="#1E1E1E" opacity="0.10"></rect><rect x="1392" y="0" width="40" height="40" fill="#1E1E1E" opacity="0.10"></rect><rect x="1488" y="0" width="40" height="40" fill="#1E1E1E" opacity="0.20"></rect><rect x="1536" y="0" width="40" height="40" fill="#1E1E1E" opacity="0.20"></rect><rect x="1584" y="0" width="40" height="40" fill="#1E1E1E" opacity="0.30"></rect><rect x="1728" y="0" width="40" height="40" fill="#1E1E1E" opacity="0.30"></rect><rect x="1776" y="0" width="40" height="40" fill="#1E1E1E" opacity="0.30"></rect><rect x="1824" y="0" width="40" height="40" fill="#1E1E1E" opacity="0.40"></rect><rect x="1872" y="0" width="40" height="40" fill="#1E1E1E" opacity="0.50"></rect><rect x="0" y="48" width="40" height="40" fill="#1E1E1E" opacity="0.50"></rect><rect x="48" y="48" width="40" height="40" fill="#1E1E1E" opacity="0.40"></rect><rect x="96" y="48" width="40" height="40" fill="#1E1E1E" opacity="0.50"></rect><rect x="144" y="48" width="40" height="40" fill="#1E1E1E" opacity="0.50"></rect><rect x="192" y="48" width="40" height="40" fill="#1E1E1E" opacity="0.40"></rect><rect x="240" y="48" width="40" height="40" fill="#1E1E1E" opacity="0.30"></rect><rect x="576" y="48" width="40" height="40" fill="#1E1E1E" opacity="0.10"></rect><rect x="1248" y="48" width="40" height="40" fill="#1E1E1E" opacity="0.10"></rect><rect x="1536" y="48" width="40" height="40" fill="#1E1E1E" opacity="0.20"></rect><rect x="1680" y="48" width="40" height="40" fill="#1E1E1E" opacity="0.30"></rect><rect x="1728" y="48" width="40" height="40" fill="#1E1E1E" opacity="0.40"></rect><rect x="1776" y="48" width="40" height="40" fill="#1E1E1E" opacity="0.50"></rect><rect x="1824" y="48" width="40" height="40" fill="#1E1E1E" opacity="0.40"></rect><rect x="1872" y="48" width="40" height="40" fill="#1E1E1E" opacity="0.50"></rect><rect x="0" y="96" width="40" height="40" fill="#1E1E1E" opacity="0.50"></rect><rect x="48" y="96" width="40" height="40" fill="#1E1E1E" opacity="0.50"></rect><rect x="96" y="96" width="40" height="40" fill="#1E1E1E" opacity="0.40"></rect><rect x="144" y="96" width="40" height="40" fill="#1E1E1E" opacity="0.40"></rect><rect x="336" y="96" width="40" height="40" fill="#1E1E1E" opacity="0.20"></rect><rect x="432" y="96" width="40" height="40" fill="#1E1E1E" opacity="0.20"></rect><rect x="480" y="96" width="40" height="40" fill="#1E1E1E" opacity="0.10"></rect><rect x="528" y="96" width="40" height="40" fill="#1E1E1E" opacity="0.20"></rect><rect x="1440" y="96" width="40" height="40" fill="#1E1E1E" opacity="0.20"></rect><rect x="1536" y="96" width="40" height="40" fill="#1E1E1E" opacity="0.30"></rect><rect x="1584" y="96" width="40" height="40" fill="#1E1E1E" opacity="0.20"></rect><rect x="1632" y="96" width="40" height="40" fill="#1E1E1E" opacity="0.30"></rect><rect x="1680" y="96" width="40" height="40" fill="#1E1E1E" opacity="0.40"></rect><rect x="1728" y="96" width="40" height="40" fill="#1E1E1E" opacity="0.40"></rect><rect x="1776" y="96" width="40" height="40" fill="#1E1E1E" opacity="0.40"></rect><rect x="1824" y="96" width="40" height="40" fill="#1E1E1E" opacity="0.50"></rect><rect x="1872" y="96" width="40" height="40" fill="#1E1E1E" opacity="0.50"></rect><rect x="0" y="144" width="40" height="40" fill="#1E1E1E" opacity="0.50"></rect><rect x="48" y="144" width="40" height="40" fill="#1E1E1E" opacity="0.40"></rect><rect x="96" y="144" width="40" height="40" fill="#1E1E1E" opacity="0.50"></rect><rect x="144" y="144" width="40" height="40" fill="#1E1E1E" opacity="0.40"></rect><rect x="192" y="144" width="40" height="40" fill="#1E1E1E" opacity="0.40"></rect><rect x="240" y="144" width="40" height="40" fill="#1E1E1E" opacity="0.30"></rect><rect x="288" y="144" width="40" height="40" fill="#1E1E1E" opacity="0.30"></rect><rect x="336" y="144" width="40" height="40" fill="#1E1E1E" opacity="0.30"></rect><rect x="384" y="144" width="40" height="40" fill="#1E1E1E" opacity="0.20"></rect><rect x="1296" y="144" width="40" height="40" fill="#1E1E1E" opacity="0.10"></rect><rect x="1584" y="144" width="40" height="40" fill="#1E1E1E" opacity="0.30"></rect><rect x="1632" y="144" width="40" height="40" fill="#1E1E1E" opacity="0.30"></rect><rect x="1680" y="144" width="40" height="40" fill="#1E1E1E" opacity="0.40"></rect><rect x="1728" y="144" width="40" height="40" fill="#1E1E1E" opacity="0.40"></rect><rect x="1776" y="144" width="40" height="40" fill="#1E1E1E" opacity="0.40"></rect><rect x="1824" y="144" width="40" height="40" fill="#1E1E1E" opacity="0.50"></rect><rect x="1872" y="144" width="40" height="40" fill="#1E1E1E" opacity="0.50"></rect><rect x="0" y="192" width="40" height="40" fill="#1E1E1E" opacity="0.50"></rect><rect x="48" y="192" width="40" height="40" fill="#1E1E1E" opacity="0.40"></rect><rect x="96" y="192" width="40" height="40" fill="#1E1E1E" opacity="0.40"></rect><rect x="144" y="192" width="40" height="40" fill="#1E1E1E" opacity="0.40"></rect><rect x="288" y="192" width="40" height="40" fill="#1E1E1E" opacity="0.30"></rect><rect x="336" y="192" width="40" height="40" fill="#1E1E1E" opacity="0.30"></rect><rect x="384" y="192" width="40" height="40" fill="#1E1E1E" opacity="0.30"></rect><rect x="528" y="192" width="40" height="40" fill="#1E1E1E" opacity="0.10"></rect><rect x="624" y="192" width="40" height="40" fill="#1E1E1E" opacity="0.10"></rect><rect x="1488" y="192" width="40" height="40" fill="#1E1E1E" opacity="0.30"></rect><rect x="1536" y="192" width="40" height="40" fill="#1E1E1E" opacity="0.20"></rect><rect x="1584" y="192" width="40" height="40" fill="#1E1E1E" opacity="0.20"></rect><rect x="1632" y="192" width="40" height="40" fill="#1E1E1E" opacity="0.40"></rect><rect x="1680" y="192" width="40" height="40" fill="#1E1E1E" opacity="0.40"></rect><rect x="1728" y="192" width="40" height="40" fill="#1E1E1E" opacity="0.40"></rect><rect x="1776" y="192" width="40" height="40" fill="#1E1E1E" opacity="0.40"></rect><rect x="1824" y="192" width="40" height="40" fill="#1E1E1E" opacity="0.40"></rect><rect x="1872" y="192" width="40" height="40" fill="#1E1E1E" opacity="0.40"></rect><rect x="0" y="240" width="40" height="40" fill="#1E1E1E" opacity="0.50"></rect><rect x="48" y="240" width="40" height="40" fill="#1E1E1E" opacity="0.50"></rect><rect x="96" y="240" width="40" height="40" fill="#1E1E1E" opacity="0.40"></rect><rect x="192" y="240" width="40" height="40" fill="#1E1E1E" opacity="0.30"></rect><rect x="288" y="240" width="40" height="40" fill="#1E1E1E" opacity="0.30"></rect><rect x="384" y="240" width="40" height="40" fill="#1E1E1E" opacity="0.20"></rect><rect x="1488" y="240" width="40" height="40" fill="#1E1E1E" opacity="0.30"></rect><rect x="1584" y="240" width="40" height="40" fill="#1E1E1E" opacity="0.30"></rect><rect x="1776" y="240" width="40" height="40" fill="#1E1E1E" opacity="0.40"></rect><rect x="1824" y="240" width="40" height="40" fill="#1E1E1E" opacity="0.50"></rect><rect x="1872" y="240" width="40" height="40" fill="#1E1E1E" opacity="0.50"></rect></svg>