<svg width="432" height="1080" viewBox="0 0 432 1080" fill="none" xmlns="http://www.w3.org/2000/svg"><rect x="0" y="0" width="40" height="40" fill="#00D967" opacity="0.50"></rect><rect x="48" y="0" width="40" height="40" fill="#00D967" opacity="0.40"></rect><rect x="96" y="0" width="40" height="40" fill="#00D967" opacity="0.30"></rect><rect x="144" y="0" width="40" height="40" fill="#00D967" opacity="0.20"></rect><rect x="192" y="0" width="40" height="40" fill="#00D967" opacity="0.30"></rect><rect x="240" y="0" width="40" height="40" fill="#00D967" opacity="0.10"></rect><rect x="288" y="0" width="40" height="40" fill="#00D967" opacity="0.10"></rect><rect x="0" y="48" width="40" height="40" fill="#00D967" opacity="0.50"></rect><rect x="48" y="48" width="40" height="40" fill="#00D967" opacity="0.40"></rect><rect x="96" y="48" width="40" height="40" fill="#00D967" opacity="0.40"></rect><rect x="144" y="48" width="40" height="40" fill="#00D967" opacity="0.40"></rect><rect x="192" y="48" width="40" height="40" fill="#00D967" opacity="0.30"></rect><rect x="240" y="48" width="40" height="40" fill="#00D967" opacity="0.20"></rect><rect x="0" y="96" width="40" height="40" fill="#00D967" opacity="0.50"></rect><rect x="48" y="96" width="40" height="40" fill="#00D967" opacity="0.50"></rect><rect x="96" y="96" width="40" height="40" fill="#00D967" opacity="0.40"></rect><rect x="144" y="96" width="40" height="40" fill="#00D967" opacity="0.30"></rect><rect x="0" y="144" width="40" height="40" fill="#00D967" opacity="0.50"></rect><rect x="48" y="144" width="40" height="40" fill="#00D967" opacity="0.40"></rect><rect x="96" y="144" width="40" height="40" fill="#00D967" opacity="0.40"></rect><rect x="144" y="144" width="40" height="40" fill="#00D967" opacity="0.30"></rect><rect x="192" y="144" width="40" height="40" fill="#00D967" opacity="0.30"></rect><rect x="336" y="144" width="40" height="40" fill="#00D967" opacity="0.20"></rect><rect x="0" y="192" width="40" height="40" fill="#00D967" opacity="0.50"></rect><rect x="48" y="192" width="40" height="40" fill="#00D967" opacity="0.40"></rect><rect x="96" y="192" width="40" height="40" fill="#00D967" opacity="0.30"></rect><rect x="144" y="192" width="40" height="40" fill="#00D967" opacity="0.30"></rect><rect x="336" y="192" width="40" height="40" fill="#00D967" opacity="0.10"></rect><rect x="0" y="240" width="40" height="40" fill="#00D967" opacity="0.50"></rect><rect x="48" y="240" width="40" height="40" fill="#00D967" opacity="0.40"></rect><rect x="96" y="240" width="40" height="40" fill="#00D967" opacity="0.30"></rect><rect x="288" y="240" width="40" height="40" fill="#00D967" opacity="0.20"></rect><rect x="0" y="288" width="40" height="40" fill="#00D967" opacity="0.40"></rect><rect x="48" y="288" width="40" height="40" fill="#00D967" opacity="0.50"></rect><rect x="96" y="288" width="40" height="40" fill="#00D967" opacity="0.30"></rect><rect x="288" y="288" width="40" height="40" fill="#00D967" opacity="0.10"></rect><rect x="0" y="336" width="40" height="40" fill="#00D967" opacity="0.50"></rect><rect x="48" y="336" width="40" height="40" fill="#00D967" opacity="0.50"></rect><rect x="240" y="336" width="40" height="40" fill="#00D967" opacity="0.20"></rect><rect x="336" y="336" width="40" height="40" fill="#00D967" opacity="0.20"></rect><rect x="0" y="384" width="40" height="40" fill="#00D967" opacity="0.50"></rect><rect x="48" y="384" width="40" height="40" fill="#00D967" opacity="0.40"></rect><rect x="96" y="384" width="40" height="40" fill="#00D967" opacity="0.30"></rect><rect x="192" y="384" width="40" height="40" fill="#00D967" opacity="0.30"></rect><rect x="0" y="432" width="40" height="40" fill="#00D967" opacity="0.40"></rect><rect x="48" y="432" width="40" height="40" fill="#00D967" opacity="0.50"></rect><rect x="96" y="432" width="40" height="40" fill="#00D967" opacity="0.40"></rect><rect x="144" y="432" width="40" height="40" fill="#00D967" opacity="0.30"></rect><rect x="192" y="432" width="40" height="40" fill="#00D967" opacity="0.30"></rect><rect x="240" y="432" width="40" height="40" fill="#00D967" opacity="0.20"></rect><rect x="288" y="432" width="40" height="40" fill="#00D967" opacity="0.10"></rect><rect x="336" y="432" width="40" height="40" fill="#00D967" opacity="0.10"></rect><rect x="0" y="480" width="40" height="40" fill="#00D967" opacity="0.40"></rect><rect x="48" y="480" width="40" height="40" fill="#00D967" opacity="0.50"></rect><rect x="96" y="480" width="40" height="40" fill="#00D967" opacity="0.30"></rect><rect x="144" y="480" width="40" height="40" fill="#00D967" opacity="0.40"></rect><rect x="192" y="480" width="40" height="40" fill="#00D967" opacity="0.30"></rect><rect x="0" y="528" width="40" height="40" fill="#00D967" opacity="0.50"></rect><rect x="48" y="528" width="40" height="40" fill="#00D967" opacity="0.40"></rect><rect x="144" y="528" width="40" height="40" fill="#00D967" opacity="0.30"></rect><rect x="192" y="528" width="40" height="40" fill="#00D967" opacity="0.20"></rect><rect x="240" y="528" width="40" height="40" fill="#00D967" opacity="0.30"></rect><rect x="288" y="528" width="40" height="40" fill="#00D967" opacity="0.10"></rect><rect x="0" y="576" width="40" height="40" fill="#00D967" opacity="0.50"></rect><rect x="48" y="576" width="40" height="40" fill="#00D967" opacity="0.40"></rect><rect x="96" y="576" width="40" height="40" fill="#00D967" opacity="0.40"></rect><rect x="144" y="576" width="40" height="40" fill="#00D967" opacity="0.30"></rect><rect x="0" y="624" width="40" height="40" fill="#00D967" opacity="0.40"></rect><rect x="48" y="624" width="40" height="40" fill="#00D967" opacity="0.40"></rect><rect x="96" y="624" width="40" height="40" fill="#00D967" opacity="0.50"></rect><rect x="144" y="624" width="40" height="40" fill="#00D967" opacity="0.30"></rect><rect x="192" y="624" width="40" height="40" fill="#00D967" opacity="0.30"></rect><rect x="0" y="672" width="40" height="40" fill="#00D967" opacity="0.40"></rect><rect x="48" y="672" width="40" height="40" fill="#00D967" opacity="0.40"></rect><rect x="144" y="672" width="40" height="40" fill="#00D967" opacity="0.40"></rect><rect x="192" y="672" width="40" height="40" fill="#00D967" opacity="0.20"></rect><rect x="384" y="672" width="40" height="40" fill="#00D967" opacity="0.10"></rect><rect x="0" y="720" width="40" height="40" fill="#00D967" opacity="0.40"></rect><rect x="48" y="720" width="40" height="40" fill="#00D967" opacity="0.50"></rect><rect x="96" y="720" width="40" height="40" fill="#00D967" opacity="0.30"></rect><rect x="144" y="720" width="40" height="40" fill="#00D967" opacity="0.40"></rect><rect x="192" y="720" width="40" height="40" fill="#00D967" opacity="0.30"></rect><rect x="336" y="720" width="40" height="40" fill="#00D967" opacity="0.10"></rect><rect x="384" y="720" width="40" height="40" fill="#00D967" opacity="0.10"></rect><rect x="0" y="768" width="40" height="40" fill="#00D967" opacity="0.50"></rect><rect x="48" y="768" width="40" height="40" fill="#00D967" opacity="0.50"></rect><rect x="96" y="768" width="40" height="40" fill="#00D967" opacity="0.40"></rect><rect x="144" y="768" width="40" height="40" fill="#00D967" opacity="0.30"></rect><rect x="336" y="768" width="40" height="40" fill="#00D967" opacity="0.10"></rect><rect x="0" y="816" width="40" height="40" fill="#00D967" opacity="0.50"></rect><rect x="48" y="816" width="40" height="40" fill="#00D967" opacity="0.40"></rect><rect x="144" y="816" width="40" height="40" fill="#00D967" opacity="0.30"></rect><rect x="288" y="816" width="40" height="40" fill="#00D967" opacity="0.10"></rect><rect x="0" y="864" width="40" height="40" fill="#00D967" opacity="0.50"></rect><rect x="48" y="864" width="40" height="40" fill="#00D967" opacity="0.50"></rect><rect x="96" y="864" width="40" height="40" fill="#00D967" opacity="0.40"></rect><rect x="192" y="864" width="40" height="40" fill="#00D967" opacity="0.40"></rect><rect x="240" y="864" width="40" height="40" fill="#00D967" opacity="0.20"></rect><rect x="0" y="912" width="40" height="40" fill="#00D967" opacity="0.40"></rect><rect x="48" y="912" width="40" height="40" fill="#00D967" opacity="0.40"></rect><rect x="96" y="912" width="40" height="40" fill="#00D967" opacity="0.40"></rect><rect x="192" y="912" width="40" height="40" fill="#00D967" opacity="0.30"></rect><rect x="288" y="912" width="40" height="40" fill="#00D967" opacity="0.10"></rect><rect x="0" y="960" width="40" height="40" fill="#00D967" opacity="0.50"></rect><rect x="48" y="960" width="40" height="40" fill="#00D967" opacity="0.40"></rect><rect x="96" y="960" width="40" height="40" fill="#00D967" opacity="0.30"></rect><rect x="144" y="960" width="40" height="40" fill="#00D967" opacity="0.40"></rect><rect x="288" y="960" width="40" height="40" fill="#00D967" opacity="0.10"></rect><rect x="0" y="1008" width="40" height="40" fill="#00D967" opacity="0.50"></rect><rect x="48" y="1008" width="40" height="40" fill="#00D967" opacity="0.50"></rect><rect x="144" y="1008" width="40" height="40" fill="#00D967" opacity="0.30"></rect><rect x="0" y="1056" width="40" height="40" fill="#00D967" opacity="0.40"></rect><rect x="48" y="1056" width="40" height="40" fill="#00D967" opacity="0.40"></rect><rect x="96" y="1056" width="40" height="40" fill="#00D967" opacity="0.40"></rect></svg>